ply
format ascii 1.0
comment File exported by Rhinoceros Version 5.0
element vertex 62
property float x
property float y
property float z
element face 106
property list uchar uint vertex_index
end_header
-51.000000 0.000000 52.000000
-51.000000 0.000000 52.000000
-51.000000 0.000000 -48.094856
-51.000000 0.000000 -48.094856
-45.712593 18.628990 15.281456
-38.054394 23.278612 37.176109
-34.455322 7.136251 -35.864677
-33.910149 7.107509 -10.267090
-28.528088 4.643987 12.397762
-28.007185 4.643987 -4.177849
-27.102852 4.643987 2.604652
-27.102852 4.643987 2.604652
-25.746351 4.643987 -12.015404
-25.679108 2.325704 -25.781364
-24.434566 8.942022 20.631798
-23.383875 5.932405 -36.539635
-21.564718 7.136251 9.412350
-21.121653 19.059036 24.497938
-18.895920 7.107509 -12.769463
-15.999462 8.942022 19.149868
-14.536865 7.883642 16.053379
-12.912716 8.777875 12.724422
-12.713398 19.475119 23.818230
-12.174068 9.968293 20.256010
-11.367344 15.166089 0.360554
-11.367344 15.166089 0.360554
-11.367344 15.166089 0.360554
-9.856712 3.332793 -27.631706
-9.092148 7.136251 -38.360115
-8.931122 8.942022 18.567699
-8.783222 20.072104 23.274176
-8.157246 19.150791 29.489321
-8.078739 17.973658 12.974796
-5.968838 19.161381 20.341537
-3.105831 23.530785 38.842201
-3.105831 18.174368 23.399826
-2.537342 32.996040 7.172764
-2.489334 7.107509 -19.343422
-0.857422 36.953972 -0.064713
-0.767670 13.085784 31.207918
1.123051 7.107509 -32.788429
1.604145 4.133111 -40.653137
5.364853 19.059036 25.235092
5.366123 23.466343 17.705021
6.173588 16.878855 35.712124
8.630165 19.056305 -17.622223
15.576904 21.496532 12.644020
16.647041 21.364063 21.040590
20.749649 20.270035 20.349302
21.113266 16.268475 -9.286980
21.840607 20.717577 9.636810
23.211212 29.569277 36.093021
28.897346 22.074642 17.540691
31.151505 7.107509 -25.281319
32.108643 28.482201 -14.506287
34.237137 24.725965 27.268480
37.311150 24.245947 16.372730
43.553650 20.174751 2.180950
48.999992 0.000000 51.952579
48.999992 0.000000 51.952579
48.999992 0.000000 -48.094856
48.999992 0.000000 -48.094856
3 2 0 4
3 0 5 4
3 2 4 7
3 2 7 6
3 4 10 7
3 7 10 9
3 4 8 10
3 6 7 13
3 7 9 12
3 4 14 8
3 4 5 14
3 7 12 13
3 6 13 15
3 8 16 10
3 5 17 14
3 8 14 16
3 14 17 19
3 12 18 13
3 9 18 12
3 14 19 16
3 16 19 20
3 16 20 21
3 17 22 19
3 19 22 23
3 19 23 20
3 11 16 26
3 9 11 26
3 9 26 18
3 13 27 15
3 20 23 29
3 22 30 23
3 16 21 26
3 17 31 22
3 13 18 27
3 20 29 21
3 15 27 28
3 23 30 29
3 21 29 32
3 2 6 15
3 22 31 30
3 29 30 33
3 21 32 25
3 30 35 33
3 17 34 31
3 5 34 17
3 25 32 36
3 18 37 27
3 30 31 35
3 29 33 32
3 25 36 38
3 31 34 39
3 31 39 35
3 27 40 28
3 18 26 37
3 28 40 41
3 24 38 37
3 27 37 40
3 33 35 43
3 35 39 42
3 32 33 43
3 34 44 39
3 32 43 36
3 35 42 43
3 0 34 5
3 39 44 42
3 37 38 45
3 37 45 40
3 36 43 46
3 42 47 43
3 43 47 46
3 36 46 38
3 2 15 28
3 38 49 45
3 46 47 48
3 42 44 47
3 44 51 47
3 38 46 49
3 46 50 49
3 46 48 50
3 47 51 48
3 48 52 50
3 45 49 53
3 40 45 53
3 49 54 53
3 48 51 55
3 48 55 52
3 40 53 41
3 52 55 56
3 50 52 56
3 49 50 57
3 50 56 57
3 49 57 54
3 2 28 41
3 41 53 60
3 51 58 55
3 34 51 44
3 34 58 51
3 55 58 56
3 53 54 60
3 54 57 60
3 0 58 34
3 56 58 57
3 2 41 60
3 57 58 60
3 59 3 1
3 59 61 3
