ply
format ascii 1.0
comment File exported by Rhinoceros Version 5.0
element vertex 79
property float x
property float y
property float z
element face 123
property list uchar int vertex_indices
end_header
-52.556484 0.000000 -5.427517
-50.588821 0.000000 14.767426
-46.085789 0.000000 -26.085840
-44.655811 0.000000 27.800167
-41.272144 17.148046 11.881786
-37.334961 0.000000 -37.635326
-34.222740 21.428038 32.035892
-32.888485 0.000000 40.910126
-30.909792 6.568943 -35.198391
-30.407951 6.542486 -11.635721
-29.017174 0.000000 -44.396797
-25.453753 4.274805 9.227347
-24.974255 4.274805 -6.030560
-24.141817 4.274805 0.212763
-22.893156 4.274805 -13.245055
-22.831249 2.140818 -25.916674
-22.662395 0.000000 47.275757
-21.685650 8.231159 16.806795
-20.718487 5.460796 -35.819683
-19.043947 6.568943 6.479262
-18.636106 17.543907 20.365591
-16.587309 6.542486 -13.939176
-13.921114 8.231159 15.442671
-12.909541 0.000000 50.767113
-12.574780 7.256919 12.592360
-11.079740 8.080062 9.528033
-10.896271 17.926910 19.739925
-10.399817 9.175847 16.460894
-9.657236 13.960436 -1.852936
-8.785327 0.000000 -52.313660
-8.266678 3.067847 -27.619904
-7.562912 6.568943 -37.495434
-7.414688 8.231159 14.906796
-7.278532 18.476440 19.239128
-6.702319 17.628365 24.960180
-6.630054 16.544809 9.758502
-4.687880 17.638115 16.539619
-2.052482 21.660166 33.569534
-2.052482 16.729561 19.354771
-1.529177 30.372957 4.417719
-1.484996 6.542486 -19.990511
0.017184 34.016254 -2.244407
0.099804 12.045508 26.542152
1.686839 0.000000 52.313641
1.840220 6.542486 -32.366703
2.283076 3.804542 -39.606194
5.744803 17.543907 21.044146
5.745972 21.600847 14.112684
6.489264 15.537041 30.688290
8.750541 17.541389 -18.406128
9.256098 0.000000 -52.192184
13.669724 0.000000 50.509491
15.145033 19.787624 9.454037
16.130089 19.665688 17.183098
19.906574 18.658634 16.546772
20.241274 14.975183 -10.733536
20.910799 19.070599 6.685886
22.172424 27.218618 31.038910
25.219379 0.000000 -46.541965
27.406555 20.319782 13.961432
27.512875 0.000000 44.520473
29.481525 6.542486 -25.456364
30.362558 26.217955 -15.537923
32.321854 22.760330 22.915884
35.151497 22.318468 12.886323
37.106823 0.000000 36.841770
37.106823 0.000000 -37.635326
40.897717 18.570919 -0.177267
44.805622 0.000000 -27.880606
45.768963 0.000000 25.555969
49.955688 0.000000 16.059662
50.692612 0.000000 -14.298533
52.556492 0.000000 1.022222
-24.141817 4.274805 0.212763
-24.141817 4.274805 0.212763
-9.657236 13.960436 -1.852936
-9.657236 13.960436 -1.852936
-9.657236 13.960436 -1.852936
-9.657236 13.960436 -1.852936
3 0 1 4
3 1 3 4
3 3 7 6
3 0 9 2
3 2 8 5
3 5 8 10
3 0 4 9
3 3 6 4
3 4 13 9
3 9 13 12
3 4 11 13
3 2 15 8
3 2 9 15
3 9 12 14
3 4 17 11
3 4 6 17
3 9 14 15
3 8 18 10
3 8 15 18
3 11 19 13
3 6 20 17
3 11 17 19
3 17 20 22
3 14 21 15
3 12 21 14
3 17 22 19
3 19 22 24
3 19 24 25
3 20 26 22
3 22 26 27
3 22 27 24
3 73 19 28
3 12 74 28
3 6 7 16
3 12 28 21
3 15 30 18
3 10 18 29
3 6 16 20
3 24 27 32
3 26 33 27
3 19 25 28
3 20 34 26
3 15 21 30
3 24 32 25
3 18 30 31
3 27 33 32
3 25 32 35
3 26 34 33
3 18 31 29
3 32 33 36
3 16 34 20
3 25 35 75
3 33 38 36
3 16 37 34
3 76 35 39
3 21 40 30
3 16 23 37
3 33 34 38
3 32 36 35
3 77 39 41
3 34 37 42
3 34 42 38
3 30 44 31
3 21 28 40
3 31 44 45
3 29 31 45
3 78 41 40
3 30 40 44
3 36 38 47
3 23 43 37
3 38 42 46
3 35 36 47
3 37 48 42
3 35 47 39
3 38 46 47
3 29 45 50
3 42 48 46
3 40 41 49
3 40 49 44
3 39 47 52
3 46 53 47
3 37 43 48
3 47 53 52
3 39 52 41
3 43 51 48
3 41 55 49
3 52 53 54
3 46 48 53
3 48 57 53
3 41 52 55
3 52 56 55
3 52 54 56
3 48 51 57
3 45 58 50
3 53 57 54
3 54 59 56
3 51 60 57
3 49 55 61
3 44 49 61
3 44 58 45
3 55 62 61
3 44 61 58
3 54 57 63
3 54 63 59
3 57 60 65
3 58 61 66
3 59 63 64
3 57 65 63
3 56 59 64
3 55 56 67
3 56 64 67
3 55 67 62
3 61 68 66
3 63 65 69
3 61 62 68
3 63 69 64
3 64 69 70
3 62 67 71
3 62 71 68
3 64 70 67
3 67 70 72
3 67 72 71
3 58 50 29
