ply
format ascii 1.0
comment File exported by Rhinoceros Version 5.0
element vertex 79
property float x
property float y
property float z
element face 142
property list uchar uint vertex_index
end_header
-53.676926 0.000000 -5.543227
-51.667309 0.000000 15.082246
-47.068279 0.000000 -26.641954
-45.607815 0.000000 28.392832
-42.152016 17.513622 12.135092
-38.130890 0.000000 -38.437668
-34.952332 21.884859 32.718864
-33.589626 0.000000 41.782276
-31.568752 6.708983 -35.948776
-31.056210 6.681961 -11.883780
-29.635782 0.000000 -45.343285
-25.996395 4.365938 9.424064
-25.506676 4.365938 -6.159126
-24.656487 4.365938 0.217300
-23.381208 4.365938 -13.527422
-23.317980 2.186460 -26.469189
-23.145529 0.000000 48.283615
-22.147959 8.406636 17.165092
-21.160181 5.577215 -36.583313
-19.449940 6.708983 6.617394
-19.033407 17.917923 20.799761
-16.940928 6.681961 -14.236341
-14.217893 8.406636 15.771890
-13.184756 0.000000 51.849403
-12.842859 7.411631 12.860814
-11.315946 8.252320 9.731158
-11.128564 18.309093 20.160751
-10.621527 9.371466 16.811817
-9.863118 14.258052 -1.892435
-8.972621 0.000000 -53.428921
-8.442916 3.133250 -28.208725
-7.724142 6.708983 -38.294792
-7.572760 8.406636 15.224594
-7.433700 18.870338 19.649284
-6.845204 18.004177 25.492298
-6.771397 16.897526 9.966542
-4.787820 18.014139 16.892227
-2.096241 22.121937 34.285194
-2.096241 17.086216 19.767391
-1.561779 31.020470 4.511896
-1.516655 6.681961 -20.416681
0.017547 34.741432 -2.292253
0.101931 12.302304 27.108002
1.722803 0.000000 53.428902
1.879449 6.681961 -33.056725
2.331748 3.885650 -40.450546
5.867276 17.917923 21.492783
5.868466 22.061350 14.413548
6.627607 15.868270 31.342524
8.937090 17.915350 -18.798527
9.453428 0.000000 -53.304855
13.961143 0.000000 51.586288
15.467904 20.209471 9.655584
16.473963 20.084934 17.549419
20.330956 19.056417 16.899529
20.672792 15.294436 -10.962363
21.356590 19.477163 6.828422
22.645111 27.798885 31.700624
25.757027 0.000000 -47.534180
27.990828 20.752972 14.259075
28.099417 0.000000 45.469593
30.110031 6.681961 -25.999060
31.009851 26.776890 -15.869170
33.010914 23.245556 23.404419
35.900879 22.794270 13.161043
37.897896 0.000000 37.627186
37.897896 0.000000 -38.437668
41.769604 18.966829 -0.181048
45.760818 0.000000 -28.474985
46.744701 0.000000 26.100790
51.020683 0.000000 16.402035
51.773315 0.000000 -14.603362
53.676929 0.000000 1.044014
-24.656487 4.365938 0.217300
-24.656487 4.365938 0.217300
-9.863118 14.258052 -1.892435
-9.863118 14.258052 -1.892435
-9.863118 14.258052 -1.892435
-9.863118 14.258052 -1.892435
3 0 1 4
3 1 3 4
3 3 7 6
3 0 9 2
3 2 8 5
3 5 8 10
3 0 4 9
3 3 6 4
3 4 13 9
3 9 13 12
3 4 11 13
3 2 15 8
3 2 9 15
3 9 12 14
3 4 17 11
3 4 6 17
3 9 14 15
3 8 18 10
3 8 15 18
3 11 19 13
3 6 20 17
3 11 17 19
3 17 20 22
3 14 21 15
3 12 21 14
3 17 22 19
3 19 22 24
3 19 24 25
3 20 26 22
3 22 26 27
3 22 27 24
3 73 19 28
3 12 74 28
3 6 7 16
3 12 28 21
3 15 30 18
3 10 18 29
3 6 16 20
3 24 27 32
3 26 33 27
3 19 25 28
3 20 34 26
3 15 21 30
3 24 32 25
3 18 30 31
3 27 33 32
3 25 32 35
3 26 34 33
3 18 31 29
3 32 33 36
3 16 34 20
3 25 35 75
3 33 38 36
3 16 37 34
3 76 35 39
3 21 40 30
3 16 23 37
3 33 34 38
3 32 36 35
3 77 39 41
3 34 37 42
3 34 42 38
3 30 44 31
3 21 28 40
3 31 44 45
3 29 31 45
3 78 41 40
3 30 40 44
3 36 38 47
3 23 43 37
3 38 42 46
3 35 36 47
3 37 48 42
3 35 47 39
3 38 46 47
3 29 45 50
3 42 48 46
3 40 41 49
3 40 49 44
3 39 47 52
3 46 53 47
3 37 43 48
3 47 53 52
3 39 52 41
3 43 51 48
3 41 55 49
3 52 53 54
3 46 48 53
3 48 57 53
3 41 52 55
3 52 56 55
3 52 54 56
3 48 51 57
3 45 58 50
3 53 57 54
3 54 59 56
3 51 60 57
3 49 55 61
3 44 49 61
3 44 58 45
3 55 62 61
3 44 61 58
3 54 57 63
3 54 63 59
3 57 60 65
3 58 61 66
3 59 63 64
3 57 65 63
3 56 59 64
3 55 56 67
3 56 64 67
3 55 67 62
3 61 68 66
3 63 65 69
3 61 62 68
3 63 69 64
3 64 69 70
3 62 67 71
3 62 71 68
3 64 70 67
3 67 70 72
3 67 72 71
3 58 66 65
3 66 68 65
3 68 71 65
3 71 72 65
3 70 69 65
3 70 65 72
3 65 60 51
3 51 43 65
3 43 23 65
3 23 16 65
3 16 7 65
3 7 3 65
3 3 1 65
3 1 0 65
3 0 2 65
3 2 5 65
3 5 10 65
3 10 29 65
3 58 65 29
3 58 29 50
