ply
format ascii 1.0
comment File exported by Rhinoceros Version 5.0
element vertex 62
property float x
property float y
property float z
property float nx
property float ny
property float nz
property uchar red
property uchar green
property uchar blue
element face 106
property list uchar uint vertex_index
end_header
-51.000000 0.000000 52.000000 -0.566295 0.583030 0.582569 0 0 0
-51.000000 0.000000 52.000000 0.000000 -1.000000 0.000000 0 0 0
-51.000000 0.000000 -48.094856 -0.183864 0.908226 -0.375925 0 0 0
-51.000000 0.000000 -48.094856 0.000000 -1.000000 0.000000 0 0 0
-45.712593 18.628990 15.281456 0.115980 0.969734 -0.214859 0 0 0
-38.054394 23.278612 37.176109 -0.246423 0.961873 -0.118646 0 0 0
-34.455322 7.136251 -35.864677 0.074326 0.995330 -0.061598 0 0 0
-33.910149 7.107509 -10.267090 0.283977 0.955275 -0.082502 0 0 0
-28.528088 4.643987 12.397762 0.094334 0.967624 -0.234105 0 0 0
-28.007185 4.643987 -4.177849 -0.137629 0.988941 -0.055266 0 0 0
-27.102852 4.643987 2.604652 0.343747 0.938246 -0.039152 0 0 0
-27.102852 4.643987 2.604652 -0.542732 0.833582 0.102878 0 0 0
-25.746351 4.643987 -12.015404 -0.036326 0.995542 -0.087043 0 0 0
-25.679108 2.325704 -25.781364 0.070788 0.997480 0.004775 0 0 0
-24.434566 8.942022 20.631798 -0.030452 0.813560 -0.580683 0 0 0
-23.383875 5.932405 -36.539635 0.001337 0.999120 0.041911 0 0 0
-21.564718 7.136251 9.412350 -0.264230 0.964435 -0.006880 0 0 0
-21.121653 19.059036 24.497938 -0.107452 0.773460 -0.624670 0 0 0
-18.895920 7.107509 -12.769463 -0.264425 0.927303 -0.264932 0 0 0
-15.999462 8.942022 19.149868 -0.019486 0.753059 -0.657665 0 0 0
-14.536865 7.883642 16.053379 -0.091022 0.981007 -0.171292 0 0 0
-12.912716 8.777875 12.724422 -0.534813 0.793754 0.289705 0 0 0
-12.713398 19.475119 23.818230 -0.068018 0.776540 -0.626386 0 0 0
-12.174068 9.968293 20.256010 -0.095738 0.624907 -0.774807 0 0 0
-11.367344 15.166089 0.360554 -0.782342 0.367567 -0.502828 0 0 0
-11.367344 15.166089 0.360554 -0.897322 0.429445 0.101930 0 0 0
-11.367344 15.166089 0.360554 -0.433391 0.901036 -0.017488 0 0 0
-9.856712 3.332793 -27.631706 -0.143439 0.988686 0.043872 0 0 0
-9.092148 7.136251 -38.360115 -0.019326 0.990058 -0.139327 0 0 0
-8.931122 8.942022 18.567699 -0.652485 0.711580 -0.260608 0 0 0
-8.783222 20.072104 23.274176 -0.143056 0.859142 -0.491336 0 0 0
-8.157246 19.150791 29.489321 0.277288 0.958012 -0.072971 0 0 0
-8.078739 17.973658 12.974796 -0.790068 0.524384 0.317511 0 0 0
-5.968838 19.161381 20.341537 -0.490437 0.871427 -0.009297 0 0 0
-3.105831 23.530785 38.842201 0.155911 0.981565 -0.110556 0 0 0
-3.105831 18.174368 23.399826 0.101512 0.927324 0.360229 0 0 0
-2.537342 32.996040 7.172764 -0.407188 0.763138 0.501815 0 0 0
-2.489334 7.107509 -19.343422 -0.467990 0.779939 -0.415548 0 0 0
-0.857422 36.953972 -0.064713 -0.156823 0.936219 -0.314486 0 0 0
-0.767670 13.085784 31.207918 0.151097 0.986269 -0.066660 0 0 0
1.123051 7.107509 -32.788429 -0.149690 0.957845 -0.245208 0 0 0
1.604145 4.133111 -40.653137 0.073550 0.896072 -0.437773 0 0 0
5.364853 19.059036 25.235092 -0.223843 0.882553 0.413516 0 0 0
5.366123 23.466343 17.705021 -0.102922 0.904433 0.414014 0 0 0
6.173588 16.878855 35.712124 -0.320814 0.867289 -0.380641 0 0 0
8.630165 19.056305 -17.622223 -0.024938 0.832914 -0.552840 0 0 0
15.576904 21.496532 12.644020 0.304875 0.945385 0.115322 0 0 0
16.647041 21.364063 21.040590 -0.021401 0.999771 -0.000884 0 0 0
20.749649 20.270035 20.349302 0.009154 0.981580 -0.190834 0 0 0
21.113266 16.268475 -9.286980 0.070587 0.972006 -0.224102 0 0 0
21.840607 20.717577 9.636810 -0.072732 0.991440 -0.108429 0 0 0
23.211212 29.569277 36.093021 -0.010345 0.973565 -0.228177 0 0 0
28.897346 22.074642 17.540691 -0.243434 0.968999 -0.042187 0 0 0
31.151505 7.107509 -25.281319 -0.136207 0.823680 -0.550453 0 0 0
32.108643 28.482201 -14.506287 -0.439227 0.829496 -0.344986 0 0 0
34.237137 24.725965 27.268480 0.192084 0.980206 -0.047948 0 0 0
37.311150 24.245947 16.372730 0.221599 0.975119 -0.006063 0 0 0
43.553650 20.174751 2.180950 0.421980 0.906475 0.015359 0 0 0
48.999992 0.000000 51.952579 0.608037 0.626930 0.487083 0 0 0
48.999992 0.000000 51.952579 0.000000 -1.000000 0.000000 0 0 0
48.999992 0.000000 -48.094856 0.292547 0.852554 -0.433092 0 0 0
48.999992 0.000000 -48.094856 0.000000 -1.000000 0.000000 0 0 0
3 2 0 4
3 0 5 4
3 2 4 7
3 2 7 6
3 4 10 7
3 7 10 9
3 4 8 10
3 6 7 13
3 7 9 12
3 4 14 8
3 4 5 14
3 7 12 13
3 6 13 15
3 8 16 10
3 5 17 14
3 8 14 16
3 14 17 19
3 12 18 13
3 9 18 12
3 14 19 16
3 16 19 20
3 16 20 21
3 17 22 19
3 19 22 23
3 19 23 20
3 11 16 26
3 9 11 26
3 9 26 18
3 13 27 15
3 20 23 29
3 22 30 23
3 16 21 26
3 17 31 22
3 13 18 27
3 20 29 21
3 15 27 28
3 23 30 29
3 21 29 32
3 2 6 15
3 22 31 30
3 29 30 33
3 21 32 25
3 30 35 33
3 17 34 31
3 5 34 17
3 25 32 36
3 18 37 27
3 30 31 35
3 29 33 32
3 25 36 38
3 31 34 39
3 31 39 35
3 27 40 28
3 18 26 37
3 28 40 41
3 24 38 37
3 27 37 40
3 33 35 43
3 35 39 42
3 32 33 43
3 34 44 39
3 32 43 36
3 35 42 43
3 0 34 5
3 39 44 42
3 37 38 45
3 37 45 40
3 36 43 46
3 42 47 43
3 43 47 46
3 36 46 38
3 2 15 28
3 38 49 45
3 46 47 48
3 42 44 47
3 44 51 47
3 38 46 49
3 46 50 49
3 46 48 50
3 47 51 48
3 48 52 50
3 45 49 53
3 40 45 53
3 49 54 53
3 48 51 55
3 48 55 52
3 40 53 41
3 52 55 56
3 50 52 56
3 49 50 57
3 50 56 57
3 49 57 54
3 2 28 41
3 41 53 60
3 51 58 55
3 34 51 44
3 34 58 51
3 55 58 56
3 53 54 60
3 54 57 60
3 0 58 34
3 56 58 57
3 2 41 60
3 57 58 60
3 59 1 3
3 59 3 61
