ply
format ascii 1.0
element vertex 79
property float x
property float y
property float z
element face 123
property list uchar int vertex_indices
end_header
-52.5565 0 -5.42752
-50.5888 0 14.7674
-46.0858 0 -26.0858
-44.6558 0 27.8002
-41.2721 17.148 11.8818
-37.335 0 -37.6353
-34.2227 21.428 32.0359
-32.8885 0 40.9101
-30.9098 6.56894 -35.1984
-30.408 6.54249 -11.6357
-29.0172 0 -44.3968
-25.4538 4.27481 9.22735
-24.9743 4.27481 -6.03056
-24.1418 4.27481 0.212763
-22.8932 4.27481 -13.2451
-22.8312 2.14082 -25.9167
-22.6624 0 47.2758
-21.6856 8.23116 16.8068
-20.7185 5.4608 -35.8197
-19.0439 6.56894 6.47926
-18.6361 17.5439 20.3656
-16.5873 6.54249 -13.9392
-13.9211 8.23116 15.4427
-12.9095 0 50.7671
-12.5748 7.25692 12.5924
-11.0797 8.08006 9.52803
-10.8963 17.9269 19.7399
-10.3998 9.17585 16.4609
-9.65724 13.9604 -1.85294
-8.78533 0 -52.3137
-8.26668 3.06785 -27.6199
-7.56291 6.56894 -37.4954
-7.41469 8.23116 14.9068
-7.27853 18.4764 19.2391
-6.70232 17.6284 24.9602
-6.63005 16.5448 9.7585
-4.68788 17.6381 16.5396
-2.05248 21.6602 33.5695
-2.05248 16.7296 19.3548
-1.52918 30.373 4.41772
-1.485 6.54249 -19.9905
0.017184 34.0163 -2.24441
0.099804 12.0455 26.5422
1.68684 0 52.3136
1.84022 6.54249 -32.3667
2.28308 3.80454 -39.6062
5.7448 17.5439 21.0441
5.74597 21.6008 14.1127
6.48926 15.537 30.6883
8.75054 17.5414 -18.4061
9.2561 0 -52.1922
13.6697 0 50.5095
15.145 19.7876 9.45404
16.1301 19.6657 17.1831
19.9066 18.6586 16.5468
20.2413 14.9752 -10.7335
20.9108 19.0706 6.68589
22.1724 27.2186 31.0389
25.2194 0 -46.542
27.4066 20.3198 13.9614
27.5129 0 44.5205
29.4815 6.54249 -25.4564
30.3626 26.218 -15.5379
32.3219 22.7603 22.9159
35.1515 22.3185 12.8863
37.1068 0 36.8418
37.1068 0 -37.6353
40.8977 18.5709 -0.177267
44.8056 0 -27.8806
45.769 0 25.556
49.9557 0 16.0597
50.6926 0 -14.2985
52.5565 0 1.02222
-24.1418 4.27481 0.212763
-24.1418 4.27481 0.212763
-9.65724 13.9604 -1.85294
-9.65724 13.9604 -1.85294
-9.65724 13.9604 -1.85294
-9.65724 13.9604 -1.85294
3 0 1 4
3 1 3 4
3 3 7 6
3 0 9 2
3 2 8 5
3 5 8 10
3 0 4 9
3 3 6 4
3 4 13 9
3 9 13 12
3 4 11 13
3 2 15 8
3 2 9 15
3 9 12 14
3 4 17 11
3 4 6 17
3 9 14 15
3 8 18 10
3 8 15 18
3 11 19 13
3 6 20 17
3 11 17 19
3 17 20 22
3 14 21 15
3 12 21 14
3 17 22 19
3 19 22 24
3 19 24 25
3 20 26 22
3 22 26 27
3 22 27 24
3 73 19 28
3 12 74 28
3 6 7 16
3 12 28 21
3 15 30 18
3 10 18 29
3 6 16 20
3 24 27 32
3 26 33 27
3 19 25 28
3 20 34 26
3 15 21 30
3 24 32 25
3 18 30 31
3 27 33 32
3 25 32 35
3 26 34 33
3 18 31 29
3 32 33 36
3 16 34 20
3 25 35 75
3 33 38 36
3 16 37 34
3 76 35 39
3 21 40 30
3 16 23 37
3 33 34 38
3 32 36 35
3 77 39 41
3 34 37 42
3 34 42 38
3 30 44 31
3 21 28 40
3 31 44 45
3 29 31 45
3 78 41 40
3 30 40 44
3 36 38 47
3 23 43 37
3 38 42 46
3 35 36 47
3 37 48 42
3 35 47 39
3 38 46 47
3 29 45 50
3 42 48 46
3 40 41 49
3 40 49 44
3 39 47 52
3 46 53 47
3 37 43 48
3 47 53 52
3 39 52 41
3 43 51 48
3 41 55 49
3 52 53 54
3 46 48 53
3 48 57 53
3 41 52 55
3 52 56 55
3 52 54 56
3 48 51 57
3 45 58 50
3 53 57 54
3 54 59 56
3 51 60 57
3 49 55 61
3 44 49 61
3 44 58 45
3 55 62 61
3 44 61 58
3 54 57 63
3 54 63 59
3 57 60 65
3 58 61 66
3 59 63 64
3 57 65 63
3 56 59 64
3 55 56 67
3 56 64 67
3 55 67 62
3 61 68 66
3 63 65 69
3 61 62 68
3 63 69 64
3 64 69 70
3 62 67 71
3 62 71 68
3 64 70 67
3 67 70 72
3 67 72 71
3 58 50 29
