ply
format ascii 1.0
element vertex 62
property float x
property float y
property float z
property float nx
property float ny
property float nz
element face 106
property list uchar int vertex_indices
end_header
-51 0 52 -0.566295 0.58303 0.582569
-51 0 52 0 1 0
-51 0 -48.0949 -0.183864 0.908226 -0.375925
-51 0 -48.0949 0 1 0
-42.7242 17.3447 19.2602 0.11598 0.969734 -0.214859
-38.8539 22.2743 38.9527 -0.246423 0.961873 -0.118646
-34.4553 7.13625 -35.8647 0.074326 0.99533 -0.061598
-33.9101 7.10751 -10.2671 0.283977 0.955275 -0.082502
-28.5281 4.64399 12.3978 0.094334 0.967624 -0.234105
-28.0072 4.64399 -4.17785 -0.137629 0.988941 -0.055266
-27.1029 4.64399 2.60465 0.343747 0.938246 -0.039152
-27.1029 4.64399 2.60465 -0.542732 0.833582 0.102878
-25.7464 4.64399 -12.0154 -0.036326 0.995542 -0.087043
-25.6791 2.3257 -25.7814 0.070788 0.99748 0.004775
-27.0473 8.835 19.7464 -0.030452 0.81356 -0.580683
-23.3839 5.9324 -36.5396 0.001337 0.99912 0.041911
-21.5647 7.13625 9.41235 -0.26423 0.964435 -0.00688
-21.2857 17.2816 28.1748 -0.107452 0.77346 -0.62467
-18.8959 7.10751 -12.7695 -0.264425 0.927303 -0.264932
-15.9995 8.94202 19.1499 -0.019486 0.753059 -0.657665
-14.5369 7.88364 16.0534 -0.091022 0.981007 -0.171292
-12.9127 8.77787 12.7244 -0.534813 0.793754 0.289705
-12.7134 19.4751 23.8182 -0.068018 0.77654 -0.626386
-12.1741 9.96829 20.256 -0.095738 0.624907 -0.774807
-11.3673 15.1661 0.360554 -0.782342 0.367567 -0.502828
-11.3673 15.1661 0.360554 -0.897322 0.429445 0.10193
-11.3673 15.1661 0.360554 -0.433391 0.901036 -0.017488
-9.85671 3.33279 -27.6317 -0.143439 0.988686 0.043872
-9.09215 7.13625 -38.3601 -0.019326 0.990058 -0.139327
-8.93112 8.94202 18.5677 -0.652485 0.71158 -0.260608
-8.78322 20.0721 23.2742 -0.143056 0.859142 -0.491336
-8.15725 19.1508 29.4893 0.277288 0.958012 -0.072971
-8.07874 17.9737 12.9748 -0.790068 0.524384 0.317511
-5.96884 19.1614 20.3415 -0.490437 0.871427 -0.009297
-5.34289 20.8795 43.4794 0.155911 0.981565 -0.110556
-3.10583 18.1744 23.3998 0.101512 0.927324 0.360229
-2.53734 32.996 7.17276 -0.407188 0.763138 0.501815
-2.48933 7.10751 -19.3434 -0.46799 0.779939 -0.415548
-0.857422 36.954 -0.064713 -0.156823 0.936219 -0.314486
-0.76767 13.0858 31.2079 0.151097 0.986269 -0.06666
1.12305 7.10751 -32.7884 -0.14969 0.957845 -0.245208
1.60415 4.13311 -40.6531 0.07355 0.896072 -0.437773
5.36485 19.059 25.2351 -0.223843 0.882553 0.413516
5.36612 23.4663 17.705 -0.102922 0.904433 0.414014
6.17359 16.8789 35.7121 -0.320814 0.867289 -0.380641
8.63017 19.0563 -17.6222 -0.024938 0.832914 -0.55284
15.5769 21.4965 12.644 0.304875 0.945385 0.115322
16.647 21.3641 21.0406 -0.021401 0.999771 -0.000884
20.7496 20.27 20.3493 0.009154 0.98158 -0.190834
21.1133 16.2685 -9.28698 0.070587 0.972006 -0.224102
21.8406 20.7176 9.63681 -0.072732 0.99144 -0.108429
24.3496 27.0436 41.9014 -0.010345 0.973565 -0.228177
28.8973 22.0746 17.5407 -0.243434 0.968999 -0.042187
31.1515 7.10751 -25.2813 -0.136207 0.82368 -0.550453
32.1086 28.4822 -14.5063 -0.439227 0.829497 -0.344986
34.2371 24.726 27.2685 0.192084 0.980206 -0.047948
37.3111 24.2459 16.3727 0.221599 0.975119 -0.006063
43.5536 20.1748 2.18095 0.42198 0.906475 0.015359
49 0 51.9526 0.608037 0.62693 0.487083
49 0 51.9526 0 1 0
49 0 -48.0949 0.292547 0.852554 -0.433092
49 0 -48.0949 0 1 0
3 2 0 4
3 0 5 4
3 2 4 7
3 2 7 6
3 4 10 7
3 7 10 9
3 4 8 10
3 6 7 13
3 7 9 12
3 4 14 8
3 4 5 14
3 7 12 13
3 6 13 15
3 8 16 10
3 5 17 14
3 8 14 16
3 14 17 19
3 12 18 13
3 9 18 12
3 14 19 16
3 16 19 20
3 16 20 21
3 17 22 19
3 19 22 23
3 19 23 20
3 11 16 26
3 9 11 26
3 9 26 18
3 13 27 15
3 20 23 29
3 22 30 23
3 16 21 26
3 17 31 22
3 13 18 27
3 20 29 21
3 15 27 28
3 23 30 29
3 21 29 32
3 2 6 15
3 22 31 30
3 29 30 33
3 21 32 25
3 30 35 33
3 17 34 31
3 5 34 17
3 25 32 36
3 18 37 27
3 30 31 35
3 29 33 32
3 25 36 38
3 31 34 39
3 31 39 35
3 27 40 28
3 18 26 37
3 28 40 41
3 24 38 37
3 27 37 40
3 33 35 43
3 35 39 42
3 32 33 43
3 34 44 39
3 32 43 36
3 35 42 43
3 0 34 5
3 39 44 42
3 37 38 45
3 37 45 40
3 36 43 46
3 42 47 43
3 43 47 46
3 36 46 38
3 2 15 28
3 38 49 45
3 46 47 48
3 42 44 47
3 44 51 47
3 38 46 49
3 46 50 49
3 46 48 50
3 47 51 48
3 48 52 50
3 45 49 53
3 40 45 53
3 49 54 53
3 48 51 55
3 48 55 52
3 40 53 41
3 52 55 56
3 50 52 56
3 49 50 57
3 50 56 57
3 49 57 54
3 2 28 41
3 41 53 60
3 51 58 55
3 34 51 44
3 34 58 51
3 55 58 56
3 53 54 60
3 54 57 60
3 0 58 34
3 56 58 57
3 2 41 60
3 57 58 60
3 59 3 1
3 59 61 3
