ply
format ascii 1.0
element vertex 62
property float x
property float y
property float z
property float nx
property float ny
property float nz
element face 106
property list uchar int vertex_indices
end_header
-46.9945 -0.170264 51.8567 -0.566295 0.58303 0.582569
-46.9945 -0.170264 51.8567 0 1 0
-48.6437 -0.143618 -42.2951 -0.183864 0.908226 -0.375925
-48.6437 -0.143618 -42.2951 0 1 0
-37.9272 18.3126 13.0952 0.11598 0.969734 -0.214859
-29.8518 22.9756 30.7356 -0.246423 0.961873 -0.118646
-31.5925 6.98865 -32.4689 0.074326 0.99533 -0.061598
-30.3441 6.93701 -7.81175 0.283977 0.955275 -0.082502
-25.4573 4.50789 13.0529 0.094334 0.967624 -0.234105
-26.6696 4.56225 -0.839627 -0.137629 0.988941 -0.055266
-23.7454 4.483 4.9395 0.343747 0.938246 -0.039152
-23.747 4.48741 4.36024 -0.542732 0.833582 0.102878
-30.156 4.80097 -7.78363 -0.036326 0.995542 -0.087043
-25.6791 2.3257 -25.7814 0.070788 0.99748 0.004775
-20.7708 8.78726 20.4053 -0.030452 0.81356 -0.580683
-20.8022 5.79282 -32.5874 0.001337 0.99912 0.041911
-17.6189 6.96869 9.2666 -0.26423 0.964435 -0.00688
-21.1217 19.059 24.4979 -0.107452 0.77346 -0.62467
-21.128 7.24276 -18.1293 -0.264425 0.927303 -0.264932
-15.9995 8.94202 19.1499 -0.019486 0.753059 -0.657665
-14.6295 7.87159 18.2255 -0.091022 0.981007 -0.171292
-12.9127 8.77787 12.7244 -0.534813 0.793754 0.289705
-16.0768 19.6378 21.2427 -0.068018 0.77654 -0.626386
-12.1741 9.96829 20.256 -0.095738 0.624907 -0.774807
-9.01256 15.0387 4.00434 -0.782342 0.367567 -0.502828
-7.3891 15.0017 -0.366084 -0.897322 0.429445 0.10193
-7.93278 15.0209 0.181263 -0.433391 0.901036 -0.017488
-9.85671 3.33279 -27.6317 -0.143439 0.988686 0.043872
-6.89392 7.01984 -35.2739 -0.019326 0.990058 -0.139327
-8.93112 8.94202 18.5677 -0.652485 0.71158 -0.260608
-8.04473 20.061 20.5516 -0.143056 0.859142 -0.491336
-4.89966 19.0414 25.4848 0.277288 0.958012 -0.072971
-8.07874 17.9737 12.9748 -0.790068 0.524384 0.317511
-2.79308 19.0508 16.9504 -0.490437 0.871427 -0.009297
0.0376622 23.4449 32.3031 0.155911 0.981565 -0.110556
-0.682846 18.0977 19.7494 0.101512 0.927324 0.360229
-2.53734 32.996 7.17276 -0.407188 0.763138 0.501815
-1.13102 7.02853 -16.4571 -0.46799 0.779939 -0.415548
3.65295 36.787 -3.55082 -0.156823 0.936219 -0.314486
-4.11107 13.2625 26.6454 0.151097 0.986269 -0.06666
2.81395 7.01153 -29.555 -0.14969 0.957845 -0.245208
2.75852 4.07212 -39.1072 0.07355 0.896072 -0.437773
6.79232 19.0248 21.6375 -0.223843 0.882553 0.413516
7.75591 23.3947 13.5889 -0.102922 0.904433 0.414014
6.84076 16.8883 30.613 -0.320814 0.867289 -0.380641
10.4063 18.9768 -17.1638 -0.024938 0.832914 -0.55284
17.6917 21.4484 6.97953 0.304875 0.945385 0.115322
16.647 21.3641 21.0406 -0.021401 0.999771 -0.000884
20.411 20.3246 14.9532 0.009154 0.98158 -0.190834
20.7202 16.2848 -9.20197 0.070587 0.972006 -0.224102
24.0145 20.6596 4.91556 -0.072732 0.99144 -0.108429
25.0513 29.5729 24.9868 -0.010345 0.973565 -0.228177
29.0337 22.11 12.0191 -0.243434 0.968999 -0.042187
29.9417 7.14045 -22.7242 -0.136207 0.82368 -0.550453
32.1086 28.4822 -14.5063 -0.439227 0.829497 -0.344986
34.2512 24.7809 19.7853 0.192084 0.980206 -0.047948
36.8556 24.3118 10.1299 0.221599 0.975119 -0.006063
41.7465 20.2752 -0.927455 0.42198 0.906475 0.015359
46.0507 0.130208 51.3922 0.608037 0.62693 0.487083
46.6325 0.105459 51.3903 0 1 0
45.9498 0.0847272 -41.9009 0.292547 0.852554 -0.433092
46.5338 0.059513 -41.9027 0 1 0
3 2 0 4
3 0 5 4
3 2 4 7
3 2 7 6
3 4 10 7
3 7 10 9
3 4 8 10
3 6 7 13
3 7 9 12
3 4 14 8
3 4 5 14
3 7 12 13
3 6 13 15
3 8 16 10
3 5 17 14
3 8 14 16
3 14 17 19
3 12 18 13
3 9 18 12
3 14 19 16
3 16 19 20
3 16 20 21
3 17 22 19
3 19 22 23
3 19 23 20
3 11 16 26
3 9 11 26
3 9 26 18
3 13 27 15
3 20 23 29
3 22 30 23
3 16 21 26
3 17 31 22
3 13 18 27
3 20 29 21
3 15 27 28
3 23 30 29
3 21 29 32
3 2 6 15
3 22 31 30
3 29 30 33
3 21 32 25
3 30 35 33
3 17 34 31
3 5 34 17
3 25 32 36
3 18 37 27
3 30 31 35
3 29 33 32
3 25 36 38
3 31 34 39
3 31 39 35
3 27 40 28
3 18 26 37
3 28 40 41
3 24 38 37
3 27 37 40
3 33 35 43
3 35 39 42
3 32 33 43
3 34 44 39
3 32 43 36
3 35 42 43
3 0 34 5
3 39 44 42
3 37 38 45
3 37 45 40
3 36 43 46
3 42 47 43
3 43 47 46
3 36 46 38
3 2 15 28
3 38 49 45
3 46 47 48
3 42 44 47
3 44 51 47
3 38 46 49
3 46 50 49
3 46 48 50
3 47 51 48
3 48 52 50
3 45 49 53
3 40 45 53
3 49 54 53
3 48 51 55
3 48 55 52
3 40 53 41
3 52 55 56
3 50 52 56
3 49 50 57
3 50 56 57
3 49 57 54
3 2 28 41
3 41 53 60
3 51 58 55
3 34 51 44
3 34 58 51
3 55 58 56
3 53 54 60
3 54 57 60
3 0 58 34
3 56 58 57
3 2 41 60
3 57 58 60
3 59 3 1
3 59 61 3
